<svg xmlns="http://www.w3.org/2000/svg" viewBox="0 0 100 100">
  <defs>
    <linearGradient id="stalk" x1="0" y1="1" x2="1" y2="0">
      <stop offset="0%" stop-color="#5a8f4a"/>
      <stop offset="48%" stop-color="#5a8f4a"/>
      <stop offset="52%" stop-color="#d4a843"/>
      <stop offset="100%" stop-color="#d4a843"/>
    </linearGradient>
  </defs>
  <polygon points="50,6 88,28 88,72 50,94 12,72 12,28" fill="#2c1810" stroke="#d4a843" stroke-width="2"/>
  <path d="M22,26 L32,26 L48,78 L44,78 Z" fill="#d4a843"/>
  <rect x="18" y="22" width="18" height="5" rx="1" fill="#d4a843"/>
  <rect x="36" y="77" width="16" height="4" rx="1" fill="#d4a843"/>
  <line x1="52" y1="78" x2="72" y2="24" stroke="url(#stalk)" stroke-width="3.5" stroke-linecap="round"/>
  <g stroke="#d4a843" stroke-width="1.8" stroke-linecap="round">
    <line x1="63" y1="49" x2="72" y2="46"/>
    <line x1="63" y1="49" x2="58" y2="40"/>
    <line x1="65" y1="44" x2="74" y2="41"/>
    <line x1="65" y1="44" x2="61" y2="36"/>
    <line x1="67" y1="39" x2="75" y2="36"/>
    <line x1="67" y1="39" x2="63" y2="32"/>
    <line x1="69" y1="34" x2="76" y2="32"/>
    <line x1="69" y1="34" x2="66" y2="28"/>
    <line x1="71" y1="29" x2="76" y2="28"/>
    <line x1="71" y1="29" x2="69" y2="26"/>
  </g>
  <ellipse cx="72" cy="20" rx="3" ry="6" fill="#d4a843"/>
</svg>
